<svg width="11" height="12" viewBox="0 0 11 12" fill="none" xmlns="http://www.w3.org/2000/svg">
<path d="M0.214785 3.7128L5.2234 0.708855C5.39494 0.605965 5.60928 0.606003 5.78077 0.708952L10.7851 3.71279C10.8667 3.76174 10.9166 3.84989 10.9166 3.945V10.8334C10.9166 11.1325 10.6741 11.375 10.3749 11.375H0.624919C0.325767 11.375 0.083252 11.1325 0.083252 10.8334V3.94507C0.083252 3.84991 0.133183 3.76175 0.214785 3.7128ZM1.16659 4.40519V10.2917H9.83325V4.40494L5.50192 1.80506L1.16659 4.40519ZM5.53226 7.41994L8.40087 5.00249L9.09897 5.83091L5.54 8.83012L1.90542 5.8347L2.59441 4.99869L5.53226 7.41994Z" fill="white"/>
</svg>
