<svg width="154" height="10" viewBox="0 0 154 10" fill="none" xmlns="http://www.w3.org/2000/svg">
<path d="M93.8271 0.790211C100.657 0.692955 107.467 1.09996 114.279 1.4313C122.554 1.83371 130.828 2.34208 139.094 2.96636C143.645 3.30854 148.099 4.31507 152.489 5.52739C152.86 5.62977 153.395 5.66942 153.354 6.11781C153.301 6.68708 152.708 6.58081 152.298 6.56352C148.369 6.4442 144.481 5.90171 140.591 5.45002C136.696 4.99824 132.781 4.73786 128.871 4.48767C116.04 3.66731 103.207 2.94785 90.3441 3.02513C81.0767 3.07966 71.8169 3.321 62.5641 3.77947C55.611 4.12182 48.6628 4.49454 41.714 4.90257C33.6882 5.37245 25.6943 6.181 17.7096 7.08556C12.3575 7.69314 6.96716 8.01745 1.67242 9.05495C1.26557 9.13361 0.871198 9.11662 0.634533 8.73906C0.350641 8.27994 0.648607 7.93697 0.972433 7.66007C1.65304 7.07657 2.51626 6.86967 3.39411 6.75386C8.73174 6.04511 14.0798 5.35673 19.4175 4.64797C26.4132 3.72103 33.4133 2.85975 40.4605 2.38785C45.5484 2.04812 50.6363 1.7084 55.7274 1.48983C64.1514 1.12785 72.5802 0.796217 81.0122 0.595847C85.2795 0.49404 89.552 0.715271 93.8271 0.790211Z" fill="#FFCC53">
</svg>
