<svg width="18" height="14" viewBox="0 0 18 14" fill="none" xmlns="http://www.w3.org/2000/svg">
<path d="M4.4054 8.70215C5.65651 8.70215 6.67432 9.71996 6.67432 10.9711C6.67432 12.2222 5.65651 13.24 4.4054 13.24C3.15409 13.24 2.13649 12.2222 2.13649 10.9711C2.13649 9.71996 3.1543 8.70215 4.4054 8.70215ZM4.4054 12.1055C5.03104 12.1055 5.53986 11.5967 5.53986 10.9711C5.53986 10.3454 5.03104 9.83661 4.4054 9.83661C3.77976 9.83661 3.27094 10.3454 3.27094 10.9711C3.27094 11.5967 3.77976 12.1055 4.4054 12.1055Z" fill="white"/>
<path d="M12.1576 8.70215C13.4087 8.70215 14.4265 9.71996 14.4265 10.9711C14.4265 12.2222 13.4087 13.24 12.1576 13.24C10.9065 13.24 9.88868 12.2222 9.88868 10.9711C9.88868 9.71996 10.9065 8.70215 12.1576 8.70215ZM12.1576 12.1055C12.7832 12.1055 13.2921 11.5967 13.2921 10.9711C13.2921 10.3454 12.7832 9.83661 12.1576 9.83661C11.5321 9.83661 11.0231 10.3454 11.0231 10.9711C11.0231 11.5967 11.532 12.1055 12.1576 12.1055Z" fill="white"/>
<path d="M2.87751 2.20689C2.97394 2.01536 3.17001 1.89453 3.38442 1.89453H6.37183V3.02899H3.73423L2.18967 6.10108L1.17584 5.59132L2.87751 2.20689Z" fill="white"/>
<path d="M6.10715 10.4219H10.3992V11.5563H6.10715V10.4219Z" fill="white"/>
<path d="M13.8593 10.4219H15.8256C16.1389 10.4219 16.3928 10.6758 16.3928 10.9891C16.3928 11.3024 16.1389 11.5563 15.8256 11.5563H13.8592C13.5459 11.5563 13.292 11.3024 13.292 10.9891C13.292 10.6758 13.5459 10.4219 13.8593 10.4219Z" fill="white"/>
<path d="M0.119102 6.95461L1.23482 5.51763C1.34201 5.37922 1.50746 5.29829 1.68275 5.29829H5.80461V1.32771C5.80461 1.0144 6.05854 0.760498 6.37182 0.760498H15.8256C16.1389 0.760498 16.3928 1.01443 16.3928 1.32771C16.3928 1.64099 16.1389 1.89492 15.8256 1.89492H6.93906V5.8655C6.93906 6.17882 6.68513 6.43271 6.37185 6.43271H1.96052L1.13445 7.49682V10.4222H2.70379C3.0171 10.4222 3.271 10.6761 3.271 10.9894C3.271 11.3027 3.01707 11.5566 2.70379 11.5566H0.56724C0.253927 11.5566 2.86102e-05 11.3027 -5.72205e-06 10.9894V7.30252C-5.72205e-06 7.17659 0.0419693 7.05407 0.119102 6.95461Z" fill="white"/>
<path d="M13.897 7.54785H16.5063C16.8196 7.54785 17.0735 7.80179 17.0735 8.11506C17.0735 8.42838 16.8196 8.68227 16.5063 8.68227H13.897C13.5837 8.68227 13.3298 8.42834 13.3298 8.11506C13.3298 7.80179 13.5837 7.54785 13.897 7.54785Z" fill="white"/>
<path d="M12.5924 5.31726H17.4328C17.7461 5.31726 18 5.57119 18 5.88451C18 6.19782 17.7461 6.45172 17.4328 6.45172H12.5924C12.2791 6.45172 12.0252 6.19778 12.0252 5.88451C12.0252 5.57123 12.2791 5.31726 12.5924 5.31726Z" fill="white"/>
<path d="M11.5673 3H16.4076C16.721 3 16.9749 3.25393 16.9749 3.56721C16.9749 3.88052 16.7209 4.13442 16.4076 4.13442H11.5673C11.254 4.13442 11.0001 3.88049 11.0001 3.56721C11 3.25393 11.254 3 11.5673 3Z" fill="white"/>
</svg>
